<svg id="kity_svg_11" xmlns="http://www.w3.org/2000/svg" xmlns:xlink="http://www.w3.org/1999/xlink" version="1.1" width="1093" height="596" style="background-color: rgba(230, 238, 242, 0); visibility: visible; background-position: initial initial; background-repeat: initial initial;" viewBox="0 0 1093 596"><defs id="kity_defs_12"><linearGradient id="kity_linearGradient_23" x1="0" y1="0" x2="0" y2="1"><stop id="kity_stop_24" offset="0" stop-color="rgb(67, 188, 0)"></stop><stop id="kity_stop_25" offset="1" stop-color="rgb(67, 188, 0)"></stop></linearGradient><marker id="kity_marker_0" orient="auto" markerWidth="13" markerHeight="13" refX="12" refY="6"><path id="kity_path_1" fill="#3982fc" stroke="none" d="M2,2 L4,6 L2,11 L12,6 Z"></path></marker><g id="symbol-nwse-resize" style="cursor: pointer;"><path id="kity_path_3" fill="white" stroke="#ccc" d="M16,6A10,10,0,1,1,-4,6A10,10,0,1,1,16,6"></path><path id="kity_path_4" fill="#fdaa28" stroke="none" d="M11.3 12.4l-3.8-.5c-.4 0-.7-.3-.8-.7-.1-.4 0-.8.2-1l.8-.8-4.2-4.2-.8.8c-.2.2-.4.3-.7.3-.5 0-.9-.4-1-.9L.5 1.6c0-.3.1-.6.2-.8.2-.2.5-.3.7-.3h.1l3.8.5c.4 0 .7.3.8.7.1.4 0 .8-.2 1l-.8.8 4.2 4.2.8-.8c.2-.2.4-.3.7-.3.5 0 .9.4 1 .9l.5 3.8c0 .3-.1.6-.2.8-.2.2-.5.3-.7.3h-.1"></path></g></defs><g id="kity_g_13"><g id="minder1" text-rendering="optimize-speed"><g id="minder_connect_group1" stroke-linecap="round"><path id="kity_path_39" fill="none" stroke="#42bd41" stroke-width="1" d="M494.5,298.5A118,183,0,0,1,612.5,115.5"></path><path id="kity_path_41" fill="none" stroke="#42bd41" stroke-width="1" d="M707.5,115.5C723.5,115.5,723.5,86.5,739.5,86.5L824.5,86.5"></path><path id="kity_path_43" fill="none" stroke="#42bd41" stroke-width="1" d="M707.5,115.5C723.5,115.5,723.5,180.5,739.5,180.5L817.5,180.5"></path><path id="kity_path_45" fill="none" stroke="#42bd41" stroke-width="1" d="M494.5,298.5A118,18,0,0,0,612.5,316.5"></path><path id="kity_path_47" fill="none" stroke="#42bd41" stroke-width="1" d="M704.5,316.5C720.5,316.5,720.5,271.5,736.5,271.5L847.5,271.5"></path><path id="kity_path_49" fill="none" stroke="#42bd41" stroke-width="1" d="M704.5,316.5C720.5,316.5,720.5,334.5,736.5,334.5L872.5,334.5"></path><path id="kity_path_53" fill="none" stroke="#42bd41" stroke-width="1" d="M494.5,298.5A118,183,0,0,0,612.5,481.5"></path><path id="kity_path_55" fill="none" stroke="#42bd41" stroke-width="1" d="M768.5,481.5C784.5,481.5,784.5,457.5,800.5,457.5L920.5,457.5"></path><path id="kity_path_57" fill="none" stroke="#42bd41" stroke-width="1" d="M768.5,481.5C784.5,481.5,784.5,541.5,800.5,541.5L917.5,541.5"></path><path id="kity_path_69" fill="none" stroke="#42bd41" stroke-width="1" d="M494.5,298.5A145,200,0,0,0,349.5,98.5"></path><path id="kity_path_79" fill="none" stroke="#42bd41" stroke-width="1" d="M494.5,298.5A118,10,0,0,0,376.5,288.5"></path><path id="kity_path_81" fill="none" stroke="#42bd41" stroke-width="1" d="M275.5,288.5C259.5,288.5,259.5,264.5,243.5,264.5L88.5,264.5"></path><path id="kity_path_83" fill="none" stroke="#42bd41" stroke-width="1" d="M275.5,288.5C259.5,288.5,259.5,306.5,243.5,306.5L57.5,306.5"></path><path id="kity_path_85" fill="none" stroke="#42bd41" stroke-width="1" d="M275.5,288.5C259.5,288.5,259.5,348.5,243.5,348.5L45.5,348.5"></path><path id="kity_path_87" fill="none" stroke="#42bd41" stroke-width="1" d="M494.5,298.5A118,176,0,0,1,376.5,474.5"></path><path id="kity_path_89" fill="none" stroke="#42bd41" stroke-width="1" d="M263.5,474.5C247.5,474.5,247.5,492.5,231.5,492.5L87.5,492.5"></path><path id="kity_path_91" fill="none" stroke="#42bd41" stroke-width="1" d="M263.5,474.5C247.5,474.5,247.5,534.5,231.5,534.5L87.5,534.5"></path><path id="kity_path_93" fill="none" stroke="#42bd41" stroke-width="1" d="M263.5,474.5C247.5,474.5,247.5,450.5,231.5,450.5L87.5,450.5"></path><path id="kity_path_326" fill="none" stroke="#42bd41" stroke-width="1" d="M263.5,474.5C247.5,474.5,247.5,408.5,231.5,408.5L67.5,408.5"></path><path id="kity_path_340" fill="none" stroke="#42bd41" stroke-width="1" d="M817.5,180.5C829.5,180.5,829.5,149.5,841.5,149.5L936.5,149.5"></path><path id="kity_path_356" fill="none" stroke="#42bd41" stroke-width="1" d="M817.5,180.5C829.5,180.5,829.5,212.5,841.5,212.5L937.5,212.5"></path><path id="kity_path_372" fill="none" stroke="#42bd41" stroke-width="1" d="M936.5,149.5C948.5,149.5,948.5,128.5,960.5,128.5L1049.5,128.5"></path><path id="kity_path_380" fill="none" stroke="#42bd41" stroke-width="1" d="M936.5,149.5C948.5,149.5,948.5,170.5,960.5,170.5L1036.5,170.5"></path><path id="kity_path_425" fill="none" stroke="#42bd41" stroke-width="1" d="M184.5,98.5C168.5,98.5,168.5,53.5,152.5,53.5L55.5,53.5"></path><path id="kity_path_426" fill="none" stroke="#42bd41" stroke-width="1" d="M184.5,98.5C168.5,98.5,168.5,95.5,152.5,95.5L20.5,95.5"></path><path id="kity_path_427" fill="none" stroke="#42bd41" stroke-width="1" d="M184.5,98.5C168.5,98.5,168.5,137.5,152.5,137.5L45.5,137.5"></path><path id="kity_path_428" fill="none" stroke="#42bd41" stroke-width="1" d="M184.5,98.5C168.5,98.5,168.5,179.5,152.5,179.5L72.5,179.5"></path><path id="kity_path_438" fill="none" stroke="#42bd41" stroke-width="1" d="M704.5,316.5C720.5,316.5,720.5,397.5,736.5,397.5L839.5,397.5"></path><path id="kity_path_449" fill="none" stroke="#42bd41" stroke-width="1" d="M872.5,334.5C884.5,334.5,884.5,313.5,896.5,313.5L1072.5,313.5"></path><path id="kity_path_457" fill="none" stroke="#42bd41" stroke-width="1" d="M872.5,334.5C884.5,334.5,884.5,355.5,896.5,355.5L1073.5,355.5"></path><path id="kity_path_465" fill="none" stroke="#42bd41" stroke-width="1" d="M263.5,474.5C247.5,474.5,247.5,576.5,231.5,576.5L149.5,576.5"></path><path id="kity_path_487" fill="none" stroke="#42bd41" stroke-width="1" d="M768.5,481.5C784.5,481.5,784.5,499.5,800.5,499.5L908.5,499.5"></path></g><g id="minder_generalize_group1"></g><g id="minder_rel_line_group1"></g><g id="minder_node1"><path id="node_outline1" fill="rgba(248, 248, 248, 1)" stroke="transparent" d="M450.5,273.5h88a11,11,0,0,1,11,11v28a11,11,0,0,1,-11,11h-88a11,11,0,0,1,-11,-11v-28a11,11,0,0,1,11,-11z" stroke-width="1"></path><g id="node_text1" fill="#666666"><text id="kity_text_30" text-rendering="inherit" font-size="20" dy="1em" y="288.5" font-family="arial,helvetica,sans-serif" x="464.5">دورکاری</text></g></g><g id="kity_g_19" display="none"><path id="kity_path_20" fill="rgba(0, 255, 0, .5)" stroke="none" d="M810.5,537.5h98v6h-98z"></path><path id="kity_path_21" fill="none" stroke="#0f0" d="M810.5,537.5L908.5,537.5" stroke-width="1"></path></g><g id="minder_node2"><g id="node_expander3" style="cursor: pointer;"><path id="kity_path_248" fill="white" stroke="gray" d="M613.5,115.5A6,6,0,1,1,601.5,115.5A6,6,0,1,1,613.5,115.5"></path><path id="kity_path_249" fill="none" stroke="gray" d="M603,115.5L612,115.5"></path></g><path id="node_outline4" fill="rgba(248, 248, 248, 1)" stroke="#cccccc" d="M625.5,97.5h71a11,11,0,0,1,11,11v14a11,11,0,0,1,-11,11h-71a11,11,0,0,1,-11,-11v-14a11,11,0,0,1,11,-11z" stroke-width="1"></path><g id="node_text4" fill="#333"><text id="kity_text_99" text-rendering="inherit" font-size="16" dy="1em" y="107.5" font-family="arial,helvetica,sans-serif" x="654.5">چیست؟</text></g><g id="node_priority28"><path id="kity_path_400" fill="#e64248" stroke="none" d="M649.5,115.5A10,10,0,1,1,629.5,115.5A10,10,0,1,1,649.5,115.5"></path><text id="kity_text_401" text-rendering="geometricPrecision" x="639.5" y="114.5" text-anchor="middle" font-size="12" font-weight="bold" fill="white" dy="4.3203125">1</text></g></g><g id="minder_node3"><g id="node_expander1" style="cursor: pointer;" display="none"><path id="kity_path_242" fill="white" stroke="gray" d="M748.5,68.5A6,6,0,1,1,736.5,68.5A6,6,0,1,1,748.5,68.5"></path><path id="kity_path_243" fill="none" stroke="gray"></path></g><path id="node_outline2" fill="rgba(248, 248, 248, 1)" stroke="none" d="M760.5,53.5h53a11,11,0,0,1,11,11v8a11,11,0,0,1,-11,11h-53a11,11,0,0,1,-11,-11v-8a11,11,0,0,1,11,-11z" stroke-width="1"></path><g id="node_text2" fill="#333"><text id="kity_text_95" text-rendering="inherit" font-size="14" dy="1em" y="61.5" font-family="arial,helvetica,sans-serif" x="784.5">تعریف</text></g><g id="node_priority1"><path id="kity_path_151" fill="#e64248" stroke="none" d="M779.5,68.5A10,10,0,1,1,759.5,68.5A10,10,0,1,1,779.5,68.5"></path><text id="kity_text_152" text-rendering="geometricPrecision" x="769.5" y="67.5" text-anchor="middle" font-size="12" font-weight="bold" fill="white" dy="4.3203125">1</text></g></g><g id="minder_node4"><g id="node_expander2" style="cursor: pointer;"><path id="kity_path_245" fill="white" stroke="gray" d="M748.5,162.5A6,6,0,1,1,736.5,162.5A6,6,0,1,1,748.5,162.5"></path><path id="kity_path_246" fill="none" stroke="gray" d="M738,162.5L747,162.5"></path></g><path id="node_outline3" fill="rgba(248, 248, 248, 1)" stroke="none" d="M760.5,147.5h46a11,11,0,0,1,11,11v8a11,11,0,0,1,-11,11h-46a11,11,0,0,1,-11,-11v-8a11,11,0,0,1,11,-11z" stroke-width="1"></path><g id="node_text3" fill="#333"><text id="kity_text_97" text-rendering="inherit" font-size="14" dy="1em" y="155.5" font-family="arial,helvetica,sans-serif" x="784.5">انواع</text></g><g id="node_priority2"><path id="kity_path_154" fill="#f9b62a" stroke="none" d="M779.5,162.5A10,10,0,1,1,759.5,162.5A10,10,0,1,1,779.5,162.5"></path><text id="kity_text_155" text-rendering="geometricPrecision" x="769.5" y="161.5" text-anchor="middle" font-size="12" font-weight="bold" fill="white" dy="4.3203125">2</text></g></g><g id="minder_node5"><g id="node_expander7" style="cursor: pointer;"><path id="kity_path_260" fill="white" stroke="gray" d="M613.5,316.5A6,6,0,1,1,601.5,316.5A6,6,0,1,1,613.5,316.5"></path><path id="kity_path_261" fill="none" stroke="gray" d="M603,316.5L612,316.5"></path></g><path id="node_outline8" fill="rgba(248, 248, 248, 1)" stroke="#cccccc" d="M625.5,298.5h68a11,11,0,0,1,11,11v14a11,11,0,0,1,-11,11h-68a11,11,0,0,1,-11,-11v-14a11,11,0,0,1,11,-11z" stroke-width="1"></path><g id="node_text8" fill="#333"><text id="kity_text_107" text-rendering="inherit" font-size="16" dy="1em" y="308.5" font-family="arial,helvetica,sans-serif" x="654.5">مزایای</text></g><g id="node_priority29"><path id="kity_path_403" fill="#f9b62a" stroke="none" d="M649.5,316.5A10,10,0,1,1,629.5,316.5A10,10,0,1,1,649.5,316.5"></path><text id="kity_text_404" text-rendering="geometricPrecision" x="639.5" y="315.5" text-anchor="middle" font-size="12" font-weight="bold" fill="white" dy="4.3203125">2</text></g></g><g id="minder_node6"><g id="node_expander4" style="cursor: pointer;" display="none"><path id="kity_path_251" fill="white" stroke="gray" d="M745.5,253.5A6,6,0,1,1,733.5,253.5A6,6,0,1,1,745.5,253.5"></path><path id="kity_path_252" fill="none" stroke="gray"></path></g><path id="node_outline5" fill="rgba(248, 248, 248, 1)" stroke="none" d="M757.5,238.5h79a11,11,0,0,1,11,11v8a11,11,0,0,1,-11,11h-79a11,11,0,0,1,-11,-11v-8a11,11,0,0,1,11,-11z" stroke-width="1"></path><g id="node_text5" fill="#333"><text id="kity_text_101" text-rendering="inherit" font-size="14" dy="1em" y="246.5" font-family="arial,helvetica,sans-serif" x="781.5">کاهش هزینه</text></g><g id="node_priority3"><path id="kity_path_157" fill="#e64248" stroke="none" d="M776.5,253.5A10,10,0,1,1,756.5,253.5A10,10,0,1,1,776.5,253.5"></path><text id="kity_text_158" text-rendering="geometricPrecision" x="766.5" y="252.5" text-anchor="middle" font-size="12" font-weight="bold" fill="white" dy="4.3203125">1</text></g></g><g id="minder_node7"><g id="node_expander5" style="cursor: pointer;"><path id="kity_path_254" fill="white" stroke="gray" d="M745.5,316.5A6,6,0,1,1,733.5,316.5A6,6,0,1,1,745.5,316.5"></path><path id="kity_path_255" fill="none" stroke="gray" d="M735,316.5L744,316.5"></path></g><path id="node_outline6" fill="rgba(248, 248, 248, 1)" stroke="none" d="M757.5,301.5h104a11,11,0,0,1,11,11v8a11,11,0,0,1,-11,11h-104a11,11,0,0,1,-11,-11v-8a11,11,0,0,1,11,-11z" stroke-width="1"></path><g id="node_text6" fill="#333"><text id="kity_text_103" text-rendering="inherit" font-size="14" dy="1em" y="309.5" font-family="arial,helvetica,sans-serif" x="781.5">افزایش بهره وری</text></g><g id="node_priority4"><path id="kity_path_160" fill="#f9b62a" stroke="none" d="M776.5,316.5A10,10,0,1,1,756.5,316.5A10,10,0,1,1,776.5,316.5"></path><text id="kity_text_161" text-rendering="geometricPrecision" x="766.5" y="315.5" text-anchor="middle" font-size="12" font-weight="bold" fill="white" dy="4.3203125">2</text></g></g><g id="minder_node9"><g id="node_expander15" style="cursor: pointer;"><path id="kity_path_284" fill="white" stroke="gray" d="M613.5,481.5A6,6,0,1,1,601.5,481.5A6,6,0,1,1,613.5,481.5"></path><path id="kity_path_285" fill="none" stroke="gray" d="M603,481.5L612,481.5"></path></g><path id="node_outline16" fill="rgba(248, 248, 248, 1)" stroke="#cccccc" d="M625.5,463.5h132a11,11,0,0,1,11,11v14a11,11,0,0,1,-11,11h-132a11,11,0,0,1,-11,-11v-14a11,11,0,0,1,11,-11z" stroke-width="1"></path><g id="node_text16" fill="#333"><text id="kity_text_123" text-rendering="inherit" font-size="16" dy="1em" y="473.5" font-family="arial,helvetica,sans-serif" x="654.5">آیا به آن نیاز داریم؟</text></g><g id="node_priority32"><path id="kity_path_412" fill="#bb3aac" stroke="none" d="M649.5,481.5A10,10,0,1,1,629.5,481.5A10,10,0,1,1,649.5,481.5"></path><text id="kity_text_413" text-rendering="geometricPrecision" x="639.5" y="480.5" text-anchor="middle" font-size="12" font-weight="bold" fill="white" dy="4.3203125">4</text></g></g><g id="minder_node10"><g id="node_expander8" style="cursor: pointer;" display="none"><path id="kity_path_263" fill="white" stroke="gray" d="M809.5,439.5A6,6,0,1,1,797.5,439.5A6,6,0,1,1,809.5,439.5"></path><path id="kity_path_264" fill="none" stroke="gray" d="M799,439.5L808,439.5"></path></g><path id="node_outline9" fill="rgba(248, 248, 248, 1)" stroke="none" d="M821.5,424.5h88a11,11,0,0,1,11,11v8a11,11,0,0,1,-11,11h-88a11,11,0,0,1,-11,-11v-8a11,11,0,0,1,11,-11z" stroke-width="1"></path><g id="node_text9" fill="#333"><text id="kity_text_109" text-rendering="inherit" font-size="14" dy="1em" y="432.5" font-family="arial,helvetica,sans-serif" x="845.5">اهداف سازمان</text></g><g id="node_priority6"><path id="kity_path_166" fill="#e64248" stroke="none" d="M840.5,439.5A10,10,0,1,1,820.5,439.5A10,10,0,1,1,840.5,439.5"></path><text id="kity_text_167" text-rendering="geometricPrecision" x="830.5" y="438.5" text-anchor="middle" font-size="12" font-weight="bold" fill="white" dy="4.3203125">1</text></g></g><g id="minder_node11" opacity="1"><g id="node_expander9" style="cursor: pointer;" display="none"><path id="kity_path_266" fill="white" stroke="gray" d="M809.5,523.5A6,6,0,1,1,797.5,523.5A6,6,0,1,1,809.5,523.5"></path><path id="kity_path_267" fill="none" stroke="gray"></path></g><path id="node_outline10" fill="rgba(248, 248, 248, 1)" stroke="none" d="M821.5,508.5h85a11,11,0,0,1,11,11v8a11,11,0,0,1,-11,11h-85a11,11,0,0,1,-11,-11v-8a11,11,0,0,1,11,-11z" stroke-width="1"></path><g id="node_text10" fill="#333"><text id="kity_text_111" text-rendering="inherit" font-size="14" dy="1em" y="516.5" font-family="arial,helvetica,sans-serif" x="845.5">اندازه سازمان</text></g><g id="node_priority7"><path id="kity_path_169" fill="#5565fb" stroke="none" d="M840.5,523.5A10,10,0,1,1,820.5,523.5A10,10,0,1,1,840.5,523.5"></path><text id="kity_text_170" text-rendering="geometricPrecision" x="830.5" y="522.5" text-anchor="middle" font-size="12" font-weight="bold" fill="white" dy="4.3203125">3</text></g></g><g id="minder_node17" opacity="1"><g id="node_expander20" style="cursor: pointer;"><path id="kity_path_299" fill="white" stroke="gray" d="M360.5,98.5A6,6,0,1,1,348.5,98.5A6,6,0,1,1,360.5,98.5"></path><path id="kity_path_300" fill="none" stroke="gray" d="M350,98.5L359,98.5"></path></g><path id="node_outline21" fill="rgba(248, 248, 248, 1)" stroke="#cccccc" d="M195.5,80.5h141a11,11,0,0,1,11,11v14a11,11,0,0,1,-11,11h-141a11,11,0,0,1,-11,-11v-14a11,11,0,0,1,11,-11z" stroke-width="1"></path><g id="node_text21" fill="#333"><text id="kity_text_133" text-rendering="inherit" font-size="16" dy="1em" y="90.5" font-family="arial,helvetica,sans-serif" x="224.5">موفق ترین شرکت ها</text></g><g id="node_priority31"><path id="kity_path_409" fill="#25b7e6" stroke="none" d="M219.5,98.5A10,10,0,1,1,199.5,98.5A10,10,0,1,1,219.5,98.5"></path><text id="kity_text_410" text-rendering="geometricPrecision" x="209.5" y="97.5" text-anchor="middle" font-size="12" font-weight="bold" fill="white" dy="4.3203125">6</text></g></g><g id="minder_node22"><g id="node_expander24" style="cursor: pointer;"><path id="kity_path_311" fill="white" stroke="gray" d="M387.5,288.5A6,6,0,1,1,375.5,288.5A6,6,0,1,1,387.5,288.5"></path><path id="kity_path_312" fill="none" stroke="gray" d="M377,288.5L386,288.5"></path></g><path id="node_outline25" fill="rgba(248, 248, 248, 1)" stroke="#cccccc" d="M286.5,270.5h77a11,11,0,0,1,11,11v14a11,11,0,0,1,-11,11h-77a11,11,0,0,1,-11,-11v-14a11,11,0,0,1,11,-11z" stroke-width="1"></path><g id="node_text25" fill="#333"><text id="kity_text_141" text-rendering="inherit" font-size="16" dy="1em" y="280.5" font-family="arial,helvetica,sans-serif" x="315.5">مشکلات</text></g><g id="node_priority30"><path id="kity_path_406" fill="#5565fb" stroke="none" d="M310.5,288.5A10,10,0,1,1,290.5,288.5A10,10,0,1,1,310.5,288.5"></path><text id="kity_text_407" text-rendering="geometricPrecision" x="300.5" y="287.5" text-anchor="middle" font-size="12" font-weight="bold" fill="white" dy="4.3203125">3</text></g></g><g id="minder_node23"><g id="node_expander21" style="cursor: pointer;" display="none"><path id="kity_path_302" fill="white" stroke="gray" d="M246.5,246.5A6,6,0,1,1,234.5,246.5A6,6,0,1,1,246.5,246.5"></path><path id="kity_path_303" fill="none" stroke="gray"></path></g><path id="node_outline22" fill="rgba(248, 248, 248, 1)" stroke="none" d="M99.5,231.5h123a11,11,0,0,1,11,11v8a11,11,0,0,1,-11,11h-123a11,11,0,0,1,-11,-11v-8a11,11,0,0,1,11,-11z" stroke-width="1"></path><g id="node_text22" fill="#333"><text id="kity_text_135" text-rendering="inherit" font-size="14" dy="1em" y="239.5" font-family="arial,helvetica,sans-serif" x="123.5">کاهش ارتباطات شغلی </text></g><g id="node_priority16"><path id="kity_path_196" fill="#e64248" stroke="none" d="M118.5,246.5A10,10,0,1,1,98.5,246.5A10,10,0,1,1,118.5,246.5"></path><text id="kity_text_197" text-rendering="geometricPrecision" x="108.5" y="245.5" text-anchor="middle" font-size="12" font-weight="bold" fill="white" dy="4.3203125">1</text></g></g><g id="minder_node24"><g id="node_expander22" style="cursor: pointer;" display="none"><path id="kity_path_305" fill="white" stroke="gray" d="M246.5,288.5A6,6,0,1,1,234.5,288.5A6,6,0,1,1,246.5,288.5"></path><path id="kity_path_306" fill="none" stroke="gray"></path></g><path id="node_outline23" fill="rgba(248, 248, 248, 1)" stroke="none" d="M68.5,273.5h154a11,11,0,0,1,11,11v8a11,11,0,0,1,-11,11h-154a11,11,0,0,1,-11,-11v-8a11,11,0,0,1,11,-11z" stroke-width="1"></path><g id="node_text23" fill="#333"><text id="kity_text_137" text-rendering="inherit" font-size="14" dy="1em" y="281.5" font-family="arial,helvetica,sans-serif" x="92.5">نیاز به پشتوانه قانونی مناسب</text></g><g id="node_priority17"><path id="kity_path_199" fill="#f9b62a" stroke="none" d="M87.5,288.5A10,10,0,1,1,67.5,288.5A10,10,0,1,1,87.5,288.5"></path><text id="kity_text_200" text-rendering="geometricPrecision" x="77.5" y="287.5" text-anchor="middle" font-size="12" font-weight="bold" fill="white" dy="4.3203125">2</text></g></g><g id="minder_node25"><g id="node_expander23" style="cursor: pointer;" display="none"><path id="kity_path_308" fill="white" stroke="gray" d="M246.5,330.5A6,6,0,1,1,234.5,330.5A6,6,0,1,1,246.5,330.5"></path><path id="kity_path_309" fill="none" stroke="gray"></path></g><path id="node_outline24" fill="rgba(248, 248, 248, 1)" stroke="none" d="M56.5,315.5h166a11,11,0,0,1,11,11v8a11,11,0,0,1,-11,11h-166a11,11,0,0,1,-11,-11v-8a11,11,0,0,1,11,-11z" stroke-width="1"></path><g id="node_text24" fill="#333"><text id="kity_text_139" text-rendering="inherit" font-size="14" dy="1em" y="323.5" font-family="arial,helvetica,sans-serif" x="80.5">سختی ارزیابی عملکرد کارکنان</text></g><g id="node_priority18"><path id="kity_path_202" fill="#5565fb" stroke="none" d="M75.5,330.5A10,10,0,1,1,55.5,330.5A10,10,0,1,1,75.5,330.5"></path><text id="kity_text_203" text-rendering="geometricPrecision" x="65.5" y="329.5" text-anchor="middle" font-size="12" font-weight="bold" fill="white" dy="4.3203125">3</text></g></g><g id="minder_node26"><g id="node_expander28" style="cursor: pointer;"><path id="kity_path_323" fill="white" stroke="gray" d="M387.5,474.5A6,6,0,1,1,375.5,474.5A6,6,0,1,1,387.5,474.5"></path><path id="kity_path_324" fill="none" stroke="gray" d="M377,474.5L386,474.5"></path></g><path id="node_outline29" fill="rgba(248, 248, 248, 1)" stroke="#cccccc" d="M274.5,456.5h89a11,11,0,0,1,11,11v14a11,11,0,0,1,-11,11h-89a11,11,0,0,1,-11,-11v-14a11,11,0,0,1,11,-11z" stroke-width="1"></path><g id="node_text29" fill="#333"><text id="kity_text_149" text-rendering="inherit" font-size="16" dy="1em" y="466.5" font-family="arial,helvetica,sans-serif" x="303.5">پیاده سازی</text></g><g id="node_priority33"><path id="kity_path_415" fill="#2bcc5b" stroke="none" d="M298.5,474.5A10,10,0,1,1,278.5,474.5A10,10,0,1,1,298.5,474.5"></path><text id="kity_text_416" text-rendering="geometricPrecision" x="288.5" y="473.5" text-anchor="middle" font-size="12" font-weight="bold" fill="white" dy="4.3203125">5</text></g></g><g id="minder_node27"><g id="node_expander25" style="cursor: pointer;" display="none"><path id="kity_path_314" fill="white" stroke="gray" d="M234.5,474.5A6,6,0,1,1,222.5,474.5A6,6,0,1,1,234.5,474.5"></path><path id="kity_path_315" fill="none" stroke="gray" d="M224,474.5L233,474.5"></path></g><path id="node_outline26" fill="rgba(248, 248, 248, 1)" stroke="none" d="M98.5,459.5h112a11,11,0,0,1,11,11v8a11,11,0,0,1,-11,11h-112a11,11,0,0,1,-11,-11v-8a11,11,0,0,1,11,-11z" stroke-width="1"></path><g id="node_text26" fill="#333"><text id="kity_text_143" text-rendering="inherit" font-size="14" dy="1em" y="467.5" font-family="arial,helvetica,sans-serif" x="122.5">نحوه مدیریت پروژه</text></g><g id="node_priority19"><path id="kity_path_205" fill="#5565fb" stroke="none" d="M117.5,474.5A10,10,0,1,1,97.5,474.5A10,10,0,1,1,117.5,474.5"></path><text id="kity_text_206" text-rendering="geometricPrecision" x="107.5" y="473.5" text-anchor="middle" font-size="12" font-weight="bold" fill="white" dy="4.3203125">3</text></g></g><g id="minder_node28"><g id="node_expander26" style="cursor: pointer;" display="none"><path id="kity_path_317" fill="white" stroke="gray" d="M234.5,516.5A6,6,0,1,1,222.5,516.5A6,6,0,1,1,234.5,516.5"></path><path id="kity_path_318" fill="none" stroke="gray"></path></g><path id="node_outline27" fill="rgba(248, 248, 248, 1)" stroke="none" d="M98.5,501.5h112a11,11,0,0,1,11,11v8a11,11,0,0,1,-11,11h-112a11,11,0,0,1,-11,-11v-8a11,11,0,0,1,11,-11z" stroke-width="1"></path><g id="node_text27" fill="#333"><text id="kity_text_145" text-rendering="inherit" font-size="14" dy="1em" y="509.5" font-family="arial,helvetica,sans-serif" x="122.5">ابزار های هماهنگی</text></g><g id="node_priority20"><path id="kity_path_208" fill="#bb3aac" stroke="none" d="M117.5,516.5A10,10,0,1,1,97.5,516.5A10,10,0,1,1,117.5,516.5"></path><text id="kity_text_209" text-rendering="geometricPrecision" x="107.5" y="515.5" text-anchor="middle" font-size="12" font-weight="bold" fill="white" dy="4.3203125">4</text></g></g><g id="minder_node29" opacity="1"><g id="node_expander27" style="cursor: pointer;" display="none"><path id="kity_path_320" fill="white" stroke="gray" d="M234.5,432.5A6,6,0,1,1,222.5,432.5A6,6,0,1,1,234.5,432.5"></path><path id="kity_path_321" fill="none" stroke="gray"></path></g><path id="node_outline28" fill="rgba(248, 248, 248, 1)" stroke="none" d="M98.5,417.5h112a11,11,0,0,1,11,11v8a11,11,0,0,1,-11,11h-112a11,11,0,0,1,-11,-11v-8a11,11,0,0,1,11,-11z" stroke-width="1"></path><g id="node_text28" fill="#333"><text id="kity_text_147" text-rendering="inherit" font-size="14" dy="1em" y="425.5" font-family="arial,helvetica,sans-serif" x="122.5">نحوه تعریف &#xa0;پروژه</text></g><g id="node_priority21"><path id="kity_path_211" fill="#f9b62a" stroke="none" d="M117.5,432.5A10,10,0,1,1,97.5,432.5A10,10,0,1,1,117.5,432.5"></path><text id="kity_text_212" text-rendering="geometricPrecision" x="107.5" y="431.5" text-anchor="middle" font-size="12" font-weight="bold" fill="white" dy="4.3203125">2</text></g></g><g id="minder_node30" opacity="1"><g id="node_expander29" style="cursor: pointer;" display="none"><path id="kity_path_331" fill="white" stroke="gray" d="M234.5,390.5A6,6,0,1,1,222.5,390.5A6,6,0,1,1,234.5,390.5"></path><path id="kity_path_332" fill="none" stroke="gray"></path></g><path id="node_outline30" fill="rgba(248, 248, 248, 1)" stroke="none" d="M78.5,375.5h132a11,11,0,0,1,11,11v8a11,11,0,0,1,-11,11h-132a11,11,0,0,1,-11,-11v-8a11,11,0,0,1,11,-11z" stroke-width="1"></path><g id="node_text30" fill="#333"><text id="kity_text_328" text-rendering="inherit" font-size="14" dy="1em" y="383.5" font-family="arial,helvetica,sans-serif" x="102.5">انواع مختلف پیاده سازی</text></g><g id="node_priority22"><path id="kity_path_334" fill="#e64248" stroke="none" d="M97.5,390.5A10,10,0,1,1,77.5,390.5A10,10,0,1,1,97.5,390.5"></path><text id="kity_text_335" text-rendering="geometricPrecision" x="87.5" y="389.5" text-anchor="middle" font-size="12" font-weight="bold" fill="white" dy="4.3203125">1</text></g></g><g id="minder_node31"><g id="node_expander30" style="cursor: pointer;"><path id="kity_path_345" fill="white" stroke="gray" d="M850.5,131.5A6,6,0,1,1,838.5,131.5A6,6,0,1,1,850.5,131.5"></path><path id="kity_path_346" fill="none" stroke="gray" d="M840,131.5L849,131.5"></path></g><path id="node_outline31" fill="rgba(248, 248, 248, 1)" stroke="none" d="M862.5,116.5h63a11,11,0,0,1,11,11v8a11,11,0,0,1,-11,11h-63a11,11,0,0,1,-11,-11v-8a11,11,0,0,1,11,-11z" stroke-width="1"></path><g id="node_text31" fill="#333"><text id="kity_text_342" text-rendering="inherit" font-size="14" dy="1em" y="124.5" font-family="arial,helvetica,sans-serif" x="886.5">تمام وقت</text></g><g id="node_priority24"><path id="kity_path_388" fill="#e64248" stroke="none" d="M881.5,131.5A10,10,0,1,1,861.5,131.5A10,10,0,1,1,881.5,131.5"></path><text id="kity_text_389" text-rendering="geometricPrecision" x="871.5" y="130.5" text-anchor="middle" font-size="12" font-weight="bold" fill="white" dy="4.3203125">1</text></g></g><g id="minder_node33"><g id="node_expander32" display="none" style="cursor: pointer;"><path id="kity_path_361" fill="white" stroke="gray" d="M850.5,194.5A6,6,0,1,1,838.5,194.5A6,6,0,1,1,850.5,194.5"></path><path id="kity_path_362" fill="none" stroke="gray"></path></g><path id="node_outline33" fill="rgba(248, 248, 248, 1)" stroke="none" d="M862.5,179.5h64a11,11,0,0,1,11,11v8a11,11,0,0,1,-11,11h-64a11,11,0,0,1,-11,-11v-8a11,11,0,0,1,11,-11z" stroke-width="1"></path><g id="node_text33" fill="#333"><text id="kity_text_358" text-rendering="inherit" font-size="14" dy="1em" y="187.5" font-family="arial,helvetica,sans-serif" x="886.5">پاره وقت</text></g><g id="node_priority25"><path id="kity_path_391" fill="#f9b62a" stroke="none" d="M881.5,194.5A10,10,0,1,1,861.5,194.5A10,10,0,1,1,881.5,194.5"></path><text id="kity_text_392" text-rendering="geometricPrecision" x="871.5" y="193.5" text-anchor="middle" font-size="12" font-weight="bold" fill="white" dy="4.3203125">2</text></g></g><g id="minder_node35"><g id="node_expander34" display="none" style="cursor: pointer;"><path id="kity_path_377" fill="white" stroke="gray" d="M969.5,110.5A6,6,0,1,1,957.5,110.5A6,6,0,1,1,969.5,110.5"></path><path id="kity_path_378" fill="none" stroke="gray"></path></g><path id="node_outline35" fill="rgba(248, 248, 248, 1)" stroke="none" d="M981.5,95.5h57a11,11,0,0,1,11,11v8a11,11,0,0,1,-11,11h-57a11,11,0,0,1,-11,-11v-8a11,11,0,0,1,11,-11z" stroke-width="1"></path><g id="node_text35" fill="#333"><text id="kity_text_374" text-rendering="inherit" font-size="14" dy="1em" y="103.5" font-family="arial,helvetica,sans-serif" x="1005.5">متمرکز</text></g><g id="node_priority26"><path id="kity_path_394" fill="#e64248" stroke="none" d="M1000.5,110.5A10,10,0,1,1,980.5,110.5A10,10,0,1,1,1000.5,110.5"></path><text id="kity_text_395" text-rendering="geometricPrecision" x="990.5" y="109.5" text-anchor="middle" font-size="12" font-weight="bold" fill="white" dy="4.3203125">1</text></g></g><g id="minder_node36"><g id="node_expander35" display="none" style="cursor: pointer;"><path id="kity_path_385" fill="white" stroke="gray" d="M969.5,152.5A6,6,0,1,1,957.5,152.5A6,6,0,1,1,969.5,152.5"></path><path id="kity_path_386" fill="none" stroke="gray"></path></g><path id="node_outline36" fill="rgba(248, 248, 248, 1)" stroke="none" d="M981.5,137.5h44a11,11,0,0,1,11,11v8a11,11,0,0,1,-11,11h-44a11,11,0,0,1,-11,-11v-8a11,11,0,0,1,11,-11z" stroke-width="1"></path><g id="node_text36" fill="#333"><text id="kity_text_382" text-rendering="inherit" font-size="14" dy="1em" y="145.5" font-family="arial,helvetica,sans-serif" x="1005.5">سیار</text></g><g id="node_priority27"><path id="kity_path_397" fill="#f9b62a" stroke="none" d="M1000.5,152.5A10,10,0,1,1,980.5,152.5A10,10,0,1,1,1000.5,152.5"></path><text id="kity_text_398" text-rendering="geometricPrecision" x="990.5" y="151.5" text-anchor="middle" font-size="12" font-weight="bold" fill="white" dy="4.3203125">2</text></g></g><g id="minder_node18"><g id="node_expander16" style="cursor: pointer;" display="none"><path id="kity_path_287" fill="white" stroke="gray" d="M155.5,35.5A6,6,0,1,1,143.5,35.5A6,6,0,1,1,155.5,35.5"></path><path id="kity_path_288" fill="none" stroke="gray"></path></g><path id="node_outline17" fill="rgba(248, 248, 248, 1)" stroke="none" d="M66.5,20.5h65a11,11,0,0,1,11,11v8a11,11,0,0,1,-11,11h-65a11,11,0,0,1,-11,-11v-8a11,11,0,0,1,11,-11z" stroke-width="1"></path><g id="node_text17" fill="#333"><text id="kity_text_125" text-rendering="inherit" font-size="14" dy="1em" y="28.5" font-family="arial,helvetica,sans-serif" x="90.5">Gitlab</text></g><g id="node_priority12"><path id="kity_path_184" fill="#e64248" stroke="none" d="M85.5,35.5A10,10,0,1,1,65.5,35.5A10,10,0,1,1,85.5,35.5"></path><text id="kity_text_185" text-rendering="geometricPrecision" x="75.5" y="34.5" text-anchor="middle" font-size="12" font-weight="bold" fill="white" dy="4.3203125">1</text></g></g><g id="minder_node19"><g id="node_expander17" style="cursor: pointer;" display="none"><path id="kity_path_290" fill="white" stroke="gray" d="M155.5,77.5A6,6,0,1,1,143.5,77.5A6,6,0,1,1,155.5,77.5"></path><path id="kity_path_291" fill="none" stroke="gray"></path></g><path id="node_outline18" fill="rgba(248, 248, 248, 1)" stroke="none" d="M31.5,62.5h100a11,11,0,0,1,11,11v8a11,11,0,0,1,-11,11h-100a11,11,0,0,1,-11,-11v-8a11,11,0,0,1,11,-11z" stroke-width="1"></path><g id="node_text18" fill="#333"><text id="kity_text_127" text-rendering="inherit" font-size="14" dy="1em" y="70.5" font-family="arial,helvetica,sans-serif" x="55.5">Automattic</text></g><g id="node_priority13"><path id="kity_path_187" fill="#f9b62a" stroke="none" d="M50.5,77.5A10,10,0,1,1,30.5,77.5A10,10,0,1,1,50.5,77.5"></path><text id="kity_text_188" text-rendering="geometricPrecision" x="40.5" y="76.5" text-anchor="middle" font-size="12" font-weight="bold" fill="white" dy="4.3203125">2</text></g></g><g id="minder_node20"><g id="node_expander18" style="cursor: pointer;" display="none"><path id="kity_path_293" fill="white" stroke="gray" d="M155.5,119.5A6,6,0,1,1,143.5,119.5A6,6,0,1,1,155.5,119.5"></path><path id="kity_path_294" fill="none" stroke="gray"></path></g><path id="node_outline19" fill="rgba(248, 248, 248, 1)" stroke="none" d="M56.5,104.5h75a11,11,0,0,1,11,11v8a11,11,0,0,1,-11,11h-75a11,11,0,0,1,-11,-11v-8a11,11,0,0,1,11,-11z" stroke-width="1"></path><g id="node_text19" fill="#333"><text id="kity_text_129" text-rendering="inherit" font-size="14" dy="1em" y="112.5" font-family="arial,helvetica,sans-serif" x="80.5">Groove</text></g><g id="node_priority14"><path id="kity_path_190" fill="#5565fb" stroke="none" d="M75.5,119.5A10,10,0,1,1,55.5,119.5A10,10,0,1,1,75.5,119.5"></path><text id="kity_text_191" text-rendering="geometricPrecision" x="65.5" y="118.5" text-anchor="middle" font-size="12" font-weight="bold" fill="white" dy="4.3203125">3</text></g></g><g id="minder_node21"><g id="node_expander19" style="cursor: pointer;" display="none"><path id="kity_path_296" fill="white" stroke="gray" d="M155.5,161.5A6,6,0,1,1,143.5,161.5A6,6,0,1,1,155.5,161.5"></path><path id="kity_path_297" fill="none" stroke="gray"></path></g><path id="node_outline20" fill="rgba(248, 248, 248, 1)" stroke="none" d="M83.5,146.5h48a11,11,0,0,1,11,11v8a11,11,0,0,1,-11,11h-48a11,11,0,0,1,-11,-11v-8a11,11,0,0,1,11,-11z" stroke-width="1"></path><g id="node_text20" fill="#333"><text id="kity_text_131" text-rendering="inherit" font-size="14" dy="1em" y="154.5" font-family="arial,helvetica,sans-serif" x="107.5">Dell</text></g><g id="node_priority15"><path id="kity_path_193" fill="#bb3aac" stroke="none" d="M102.5,161.5A10,10,0,1,1,82.5,161.5A10,10,0,1,1,102.5,161.5"></path><text id="kity_text_194" text-rendering="geometricPrecision" x="92.5" y="160.5" text-anchor="middle" font-size="12" font-weight="bold" fill="white" dy="4.3203125">4</text></g></g><g id="minder_node38"><g id="node_expander37" display="none" style="cursor: pointer;"><path id="kity_path_443" fill="white" stroke="gray" d="M745.5,379.5A6,6,0,1,1,733.5,379.5A6,6,0,1,1,745.5,379.5"></path><path id="kity_path_444" fill="none" stroke="gray"></path></g><path id="node_outline38" fill="rgba(248, 248, 248, 1)" stroke="none" d="M757.5,364.5h71a11,11,0,0,1,11,11v8a11,11,0,0,1,-11,11h-71a11,11,0,0,1,-11,-11v-8a11,11,0,0,1,11,-11z" stroke-width="1"></path><g id="node_text38" fill="#333"><text id="kity_text_440" text-rendering="inherit" font-size="14" dy="1em" y="372.5" font-family="arial,helvetica,sans-serif" x="781.5">کاهش تنش</text></g><g id="node_priority34"><path id="kity_path_446" fill="#5565fb" stroke="none" d="M776.5,379.5A10,10,0,1,1,756.5,379.5A10,10,0,1,1,776.5,379.5"></path><text id="kity_text_447" text-rendering="geometricPrecision" x="766.5" y="378.5" text-anchor="middle" font-size="12" font-weight="bold" fill="white" dy="4.3203125">3</text></g></g><g id="minder_node39"><g id="node_expander38" display="none" style="cursor: pointer;"><path id="kity_path_454" fill="white" stroke="gray" d="M905.5,295.5A6,6,0,1,1,893.5,295.5A6,6,0,1,1,905.5,295.5"></path><path id="kity_path_455" fill="none" stroke="gray"></path></g><path id="node_outline39" fill="rgba(248, 248, 248, 1)" stroke="none" d="M917.5,280.5h144a11,11,0,0,1,11,11v8a11,11,0,0,1,-11,11h-144a11,11,0,0,1,-11,-11v-8a11,11,0,0,1,11,-11z" stroke-width="1"></path><g id="node_text39" fill="#333"><text id="kity_text_451" text-rendering="inherit" font-size="14" dy="1em" y="288.5" x="941.5">امکان استفاده از منابع جدید</text></g><g id="node_priority38"><path id="kity_path_498" fill="#e64248" stroke="none" d="M936.5,295.5A10,10,0,1,1,916.5,295.5A10,10,0,1,1,936.5,295.5"></path><text id="kity_text_499" text-rendering="geometricPrecision" x="926.5" y="294.5" text-anchor="middle" font-size="12" font-weight="bold" fill="white" dy="4.3203125">1</text></g></g><g id="minder_node40"><g id="node_expander39" display="none" style="cursor: pointer;"><path id="kity_path_462" fill="white" stroke="gray" d="M905.5,337.5A6,6,0,1,1,893.5,337.5A6,6,0,1,1,905.5,337.5"></path><path id="kity_path_463" fill="none" stroke="gray"></path></g><path id="node_outline40" fill="rgba(248, 248, 248, 1)" stroke="none" d="M917.5,322.5h145a11,11,0,0,1,11,11v8a11,11,0,0,1,-11,11h-145a11,11,0,0,1,-11,-11v-8a11,11,0,0,1,11,-11z" stroke-width="1"></path><g id="node_text40" fill="#333"><text id="kity_text_459" text-rendering="inherit" font-size="14" dy="1em" y="330.5" x="941.5">افزایش بهروری منابع فعلی</text></g><g id="node_priority39"><path id="kity_path_501" fill="#f9b62a" stroke="none" d="M936.5,337.5A10,10,0,1,1,916.5,337.5A10,10,0,1,1,936.5,337.5"></path><text id="kity_text_502" text-rendering="geometricPrecision" x="926.5" y="336.5" text-anchor="middle" font-size="12" font-weight="bold" fill="white" dy="4.3203125">2</text></g></g><g id="minder_node41"><g id="node_expander40" display="none" style="cursor: pointer;"><path id="kity_path_470" fill="white" stroke="gray" d="M234.5,558.5A6,6,0,1,1,222.5,558.5A6,6,0,1,1,234.5,558.5"></path><path id="kity_path_471" fill="none" stroke="gray"></path></g><path id="node_outline41" fill="rgba(248, 248, 248, 1)" stroke="none" d="M160.5,543.5h50a11,11,0,0,1,11,11v8a11,11,0,0,1,-11,11h-50a11,11,0,0,1,-11,-11v-8a11,11,0,0,1,11,-11z" stroke-width="1"></path><g id="node_text41" fill="#333"><text id="kity_text_467" text-rendering="inherit" font-size="14" dy="1em" y="551.5" x="184.5">قوانین</text></g><g id="node_priority35"><path id="kity_path_473" fill="#2bcc5b" stroke="none" d="M179.5,558.5A10,10,0,1,1,159.5,558.5A10,10,0,1,1,179.5,558.5"></path><text id="kity_text_474" text-rendering="geometricPrecision" x="169.5" y="557.5" text-anchor="middle" font-size="12" font-weight="bold" fill="white" dy="4.3203125">5</text></g></g><g id="minder_node43"><g id="node_expander42" display="none" style="cursor: pointer;"><path id="kity_path_495" fill="white" stroke="gray" d="M809.5,481.5A6,6,0,1,1,797.5,481.5A6,6,0,1,1,809.5,481.5"></path><path id="kity_path_496" fill="none" stroke="gray"></path></g><path id="node_outline43" fill="rgba(248, 248, 248, 1)" stroke="none" d="M821.5,466.5h76a11,11,0,0,1,11,11v8a11,11,0,0,1,-11,11h-76a11,11,0,0,1,-11,-11v-8a11,11,0,0,1,11,-11z" stroke-width="1"></path><g id="node_text43" fill="#333"><text id="kity_text_489" text-rendering="inherit" font-family="arial,helvetica,sans-serif" font-size="14" dy="1em" y="474.5" x="845.5">زمینه کاری</text></g><g id="node_priority37"><path id="kity_path_491" fill="#f9b62a" stroke="none" d="M840.5,481.5A10,10,0,1,1,820.5,481.5A10,10,0,1,1,840.5,481.5"></path><text id="kity_text_492" text-rendering="geometricPrecision" x="830.5" y="480.5" text-anchor="middle" font-size="12" font-weight="bold" fill="white" dy="4.3203125">2</text></g></g><g id="kity_g_17" display="none"><path id="kity_path_18" fill="none" stroke="yellow" d="M821.5,502.5h76a11,11,0,0,1,11,11v8a11,11,0,0,1,-11,11h-76a11,11,0,0,1,-11,-11v-8a11,11,0,0,1,11,-11z" stroke-width="2"></path></g></g></g></svg>